<svg width="46" height="42" viewBox="0 0 46 42" fill="none" xmlns="http://www.w3.org/2000/svg">
<path d="M18.8322 19.142C23.9869 19.142 28.1655 14.9633 28.1655 9.80867C28.1655 4.65402 23.9869 0.475342 18.8322 0.475342C13.6775 0.475342 9.49886 4.65402 9.49886 9.80867C9.49886 14.9633 13.6775 19.142 18.8322 19.142Z" fill="black"/>
<path d="M19.6489 23.832C13.2789 23.5987 0.165527 26.772 0.165527 33.142V35.4753C0.165527 36.7587 1.21553 37.8087 2.49886 37.8087H22.4255C16.6622 31.3687 19.5555 24.0653 19.6489 23.832Z" fill="black"/>
<path d="M40.8355 33.1887C41.9322 31.322 42.4689 29.0587 41.9555 26.6087C41.1622 22.782 37.9422 19.7253 34.0689 19.2353C27.9322 18.442 22.7522 23.5987 23.5689 29.7353C24.0822 33.6087 27.1155 36.8287 30.9422 37.622C33.3922 38.1353 35.6555 37.5987 37.5222 36.502L41.8622 40.842C42.7722 41.752 44.2422 41.752 45.1522 40.842C46.0622 39.932 46.0622 38.462 45.1522 37.552L40.8355 33.1887ZM32.8322 33.142C30.2655 33.142 28.1655 31.042 28.1655 28.4753C28.1655 25.9087 30.2655 23.8087 32.8322 23.8087C35.3989 23.8087 37.4989 25.9087 37.4989 28.4753C37.4989 31.042 35.3989 33.142 32.8322 33.142Z" fill="black"/>
</svg>
